<svg version="1" xmlns="http://www.w3.org/2000/svg" width="200" height="200" viewBox="0 0 150.000000 150.000000"><path d="M61 12.6c-9.2 1.9-21.4 8.3-28.8 14.9-3.4 3.1-6 6.1-5.6 6.6.3.5-.1.9-.8.9-2.7.1-10.7 16.5-12.3 25.5-.9 4.8-1.1 17.6-.3 22.5 1.4 8.7 6.1 20.3 9 22.1.5.3.9.9.8 1.3-.2 1 5.8 7.6 6.9 7.6.5 0 1.1.7 1.5 1.5.3.8 1.2 1.5 2.1 1.5.8 0 1.5.4 1.5.8 0 .5 1.6 1.4 3.5 2.2 1.9.8 3.5 1.7 3.5 2.1 0 .4 1 .9 2.3 1.2 1.2.2 5.2 1.6 9 3 3.7 1.4 6.7 2.3 6.7 2 0-.3.7 0 1.5.7 1.2 1 1.2 1.5.1 3.3-.8 1.2-1.7 3.5-2 5.1-.7 2.7-.6 2.8 2.1 2.1 1.5-.4 3.5-.8 4.3-1 6.1-1.3 26.1-10 26.8-11.7.2-.4.9-.8 1.5-.8 4.1 0 34.7-24 34.7-27.1 0-1-3.3-2.9-6.1-3.5-1-.2-2.9-.6-4.1-.9-1.3-.3-3.6-.8-5.3-1.1-1.6-.2-4.6-.9-6.5-1.4-1.9-.5-4.4-1.1-5.5-1.3-6.5-1-18.7-9.5-20.5-14.2-.6-1.6-1.1-.7-2.5 4-1.9 6.9-2.9 8.3-6.5 9.7-6.1 2.4-19-.3-26.5-5.6-3-2-11.9-10.6-11.1-10.6.3 0-.4-1.9-1.4-4.3-2.3-5.2-2.7-11.8-1-17.7.7-2.5 1.4-5 1.5-5.5.5-2.3 6.6-11.2 9.7-14.1 6-5.6 15.4-10.3 23.6-11.9.9-.2 1.7-.4 1.7-.5 0-.1 4.3-.4 9.6-.6 11.4-.4 17.8 1.1 25.6 5.8 9.3 5.6 15.8 18.2 14.6 28.4-.5 4.5-4.2 12.6-5.5 11.8-.4-.3-1.7-2.2-2.7-4.2l-1.9-3.7-2.6 8.7c-1.5 4.8-2.9 9.7-3.2 10.8-.2 1.1-.6 2.9-.8 4-.3 1.1-.7 2.4-1 2.9-.8 1.2 2.1 3.4 3.4 2.6.5-.3 1-.2 1 .3 0 1 8.6 3.6 15.5 4.7 2.2.3 4.8.8 5.8 1.1 1.5.5 1.7.1 1.2-3.3-.5-3.1-.2-4.2 1.8-6.4 7.5-7.9 8.7-16.9 4.1-30.6-1.9-5.5-6.5-14.3-7.6-14.3-.5 0-.8-.5-.8-1.1 0-3.2-15.4-16.1-24.1-20.2C90.5 11.9 73 10 61 12.6z"/></svg>